<svg xmlns="http://www.w3.org/2000/svg" viewBox="0 0 512 512">
  <!-- Walkaholic mark: an 85% streak ring around a flame. Source for every icon and the splash
       (npm run android:assets renders the PNGs). The glyph stays inside the Android adaptive-icon
       and PWA maskable safe zones, so launchers may crop the square to any shape. -->
  <rect width="512" height="512" fill="#020617"/>
  <g transform="translate(256 256) scale(3.1)">
    <circle r="40" fill="none" stroke="#1e293b" stroke-width="10"/>
    <path d="M0 -40 A40 40 0 1 1 -32.36 -23.51" fill="none" stroke="#38bdf8" stroke-width="10" stroke-linecap="round"/>
    <g transform="scale(1.15)">
      <path d="M0 -26 C10 -12 18 -4 16 10 C14 22 8 26 0 26 C-8 26 -15 21 -16 12 C-17 2 -11 -4 -8 -12 C-6 -4 -3 0 0 2 C-2 -8 -4 -18 0 -26 Z" fill="#f59e0b"/>
      <path d="M0 4 C5 9 8 13 7 18 C6 22 3 24 0 24 C-3 24 -6 22 -6 18 C-6 13 -2 9 0 4 Z" fill="#fcd34d"/>
    </g>
  </g>
</svg>
